<svg width="233" height="200" viewBox="0 0 233 200" fill="none" xmlns="http://www.w3.org/2000/svg">
<g clip-path="url(#clip0_274_32882)">
<path d="M80.9643 96.5905C80.918 71.6132 80.8585 46.6392 80.7891 21.662C80.7891 20.9744 80.9445 20.31 80.0784 19.824C73.3415 16.0556 66.2774 12.036 59.5637 8.22461L59.7257 84.4522" fill="#39AFFF"/>
<path d="M158.395 52.8242C156.359 49.1847 154.339 45.5386 152.27 41.9189C150.67 39.1191 149 36.3589 147.285 33.4565C143.54 35.6515 139.771 37.8596 135.745 40.2132C138.016 41.5685 142.002 44.2031 142.002 44.2031C142.336 44.4841 142.839 45.0857 142.842 45.7402C142.849 49.8557 142.832 59.2106 142.832 59.2106C142.832 59.2106 148.746 62.5857 151.559 64.1724V49.5152C154.084 50.5301 158.402 52.8209 158.402 52.8209H158.398L158.395 52.8242Z" fill="#FFCBD9"/>
<path d="M170.407 148.499C170.424 130.84 170.407 111.281 170.444 93.6186C170.444 92.5311 170.159 91.9658 169.168 91.4072C162.659 87.7247 156.206 83.9431 149.734 80.2011C149.641 80.1482 149.496 80.1945 149.373 80.1945C148.676 80.7532 149.033 81.5267 149.033 82.1878C149.01 99.4828 149.016 118.679 149.01 135.977" fill="#39AFFF"/>
<path d="M114.893 116.384C114.909 82.9413 114.896 47.5976 114.926 14.1514C114.926 12.6969 114.747 11.6589 113.289 10.849C107.012 7.36492 100.811 3.75188 94.5929 0.161976C94.3285 0.0066118 94.1037 0.0396674 93.8558 0C93.1583 0.561956 93.5087 1.33878 93.5087 1.9966C93.4888 35.3801 93.4921 70.661 93.4789 104.044" fill="#0080ED"/>
<path d="M204.886 168.236C204.982 162.914 204.794 102.022 204.886 77.4707C204.889 76.2774 204.972 75.6824 203.835 75.0576C198.51 72.152 193.28 69.0645 188.024 66.0399C186.755 65.3094 185.016 64.5788 183.466 63.6797C183.314 93.103 183.485 156.211 183.485 156.211" fill="#0080ED"/>
<path d="M232.058 184.853C231.975 184.853 231.896 184.834 231.82 184.791L48.8171 78.7563C48.589 78.624 48.513 78.3331 48.6452 78.1084C48.7774 77.8803 49.0683 77.8042 49.2931 77.9365L232.299 183.971C232.527 184.103 232.603 184.394 232.471 184.619C232.382 184.771 232.223 184.857 232.061 184.857L232.058 184.853Z" fill="#0080ED"/>
<path d="M131.98 167.129C133.335 166.269 134.496 164.739 135.147 163.116C134.492 164.735 133.335 166.266 131.98 167.129Z" fill="#39AFFF"/>
<path d="M83.0131 198.162L83.1616 198.066C83.1088 198.096 83.056 198.122 83.0032 198.152L83.0131 198.158V198.162Z" fill="#39AFFF"/>
<path d="M131.672 167.32L131.979 167.129L131.672 167.32Z" fill="#39AFFF"/>
<path d="M79.2388 197.065C79.2586 197.134 79.2751 197.2 79.3048 197.266C79.2817 197.197 79.2586 197.131 79.2388 197.058V197.065Z" fill="#39AFFF"/>
<path d="M79.3571 197.405C79.3835 197.465 79.4066 197.527 79.4363 197.58C79.4066 197.524 79.3802 197.461 79.3538 197.402H79.3571V197.405Z" fill="#39AFFF"/>
<path d="M79.6974 197.97C79.7304 198.017 79.77 198.056 79.8063 198.096C79.7634 198.053 79.7271 198.01 79.6941 197.964V197.97H79.6974Z" fill="#39AFFF"/>
<path d="M79.5096 197.709C79.5393 197.759 79.569 197.812 79.6054 197.858C79.5724 197.808 79.5361 197.755 79.5063 197.703V197.709H79.5096Z" fill="#39AFFF"/>
<path d="M80.1606 198.387C80.23 198.433 80.3026 198.473 80.3785 198.512C80.4049 198.522 80.4313 198.532 80.461 198.542C80.4346 198.532 80.4049 198.522 80.3818 198.512C80.3059 198.479 80.2333 198.433 80.1606 198.387Z" fill="#39AFFF"/>
<path d="M80.6467 198.609C81.331 198.81 82.1508 198.658 83.0136 198.159L83.0036 198.152C82.0615 198.658 81.288 198.794 80.6467 198.609Z" fill="#39AFFF"/>
<path d="M79.9127 198.199C79.9556 198.235 79.9952 198.271 80.0414 198.301C79.9952 198.268 79.949 198.232 79.9094 198.195H79.9127V198.199Z" fill="#39AFFF"/>
<path d="M79.1459 196.671C79.1624 196.754 79.1756 196.839 79.1954 196.919C79.1756 196.839 79.1624 196.75 79.1459 196.665V196.671Z" fill="#39AFFF"/>
<path d="M79.0793 196.129V196.135C79.0859 196.277 79.0991 196.409 79.1156 196.538C79.0958 196.406 79.0859 196.268 79.0793 196.129Z" fill="#39AFFF"/>
<path d="M79.6086 197.861C79.6317 197.894 79.6581 197.927 79.6845 197.957C79.6581 197.927 79.635 197.898 79.6119 197.861H79.6086Z" fill="white"/>
<path d="M79.4403 197.581C79.4568 197.61 79.47 197.637 79.4898 197.663C79.4733 197.637 79.4568 197.61 79.4436 197.584H79.4403V197.581Z" fill="white"/>
<path d="M80.0453 198.308C80.0816 198.337 80.1212 198.364 80.1641 198.387C80.1278 198.364 80.0882 198.337 80.0519 198.308H80.0486H80.0453Z" fill="white"/>
<path d="M79.1194 196.539C79.126 196.585 79.1359 196.631 79.1458 196.674V196.667C79.1392 196.624 79.126 196.585 79.1227 196.539H79.1194Z" fill="white"/>
<path d="M126.955 47.3461C127.183 47.2436 127.404 47.1576 127.609 47.0981C127.401 47.1543 127.183 47.2436 126.955 47.3461Z" fill="#39AFFF"/>
<path d="M76.6297 79.335C76.6066 79.3548 76.5835 79.3779 76.5637 79.3944C76.5868 79.3713 76.6099 79.3515 76.6297 79.335Z" fill="white"/>
<path d="M74.8984 81.6323C74.8984 81.6323 74.8785 81.6653 74.8719 81.6851C74.8785 81.6653 74.8918 81.6521 74.8984 81.6323Z" fill="white"/>
<path d="M74.2935 83.0107C74.277 83.0536 74.2671 83.0899 74.2572 83.1329C74.2671 83.0965 74.2836 83.0536 74.2935 83.014V83.0107Z" fill="white"/>
<path d="M74.1539 83.4702C74.144 83.5131 74.1308 83.5494 74.1208 83.5923C74.1308 83.556 74.144 83.5131 74.1539 83.4735V83.4702Z" fill="white"/>
<path d="M75.5194 80.624C75.4963 80.6537 75.4732 80.6834 75.4534 80.7197C75.4765 80.69 75.4963 80.6603 75.5194 80.6273V80.624Z" fill="white"/>
<path d="M74.7132 81.9961C74.6934 82.039 74.6703 82.0786 74.6538 82.1248C74.6736 82.0819 74.6967 82.0423 74.7132 81.9994V81.9961Z" fill="white"/>
<path d="M73.9494 84.4619C73.9428 84.5081 73.9395 84.5477 73.9329 84.5939C73.9362 84.551 73.9395 84.5114 73.9494 84.4685V84.4619Z" fill="white"/>
<path d="M77.7871 78.4521L77.6254 78.5512L77.7871 78.4521Z" fill="white"/>
<path d="M128.822 47.0388C128.822 47.0388 128.799 47.0355 128.789 47.0322C128.796 47.0322 128.809 47.0322 128.816 47.0355H128.822V47.0388Z" fill="white"/>
<path d="M126.826 47.4024C126.872 47.3792 126.912 47.366 126.955 47.3462C127.183 47.2437 127.405 47.1577 127.61 47.0982C127.656 47.0883 127.696 47.0784 127.742 47.0685C127.818 47.0486 127.897 47.0321 127.973 47.0189C128.023 47.0123 128.072 47.0123 128.119 47.0024C128.178 46.9958 128.241 46.9858 128.297 46.9858C127.765 46.9925 127.183 47.1677 126.585 47.5147L126.443 47.6007C126.572 47.528 126.697 47.4585 126.82 47.399H126.826V47.4024Z" fill="white"/>
<path d="M128.565 46.9959C128.505 46.9893 128.442 46.9893 128.383 46.9893C128.426 46.9893 128.466 46.9893 128.508 46.9926H128.565V46.9959Z" fill="white"/>
<path d="M122.294 45.2572C123.359 45.872 124.727 46.672 125.868 47.3364L126.357 47.0257L122.836 44.9795C122.661 45.0588 122.479 45.1514 122.294 45.2605V45.2572Z" fill="#0080ED"/>
<path d="M76.8745 79.1196C76.8382 79.1526 76.7953 79.1856 76.7557 79.2219C76.792 79.1889 76.8349 79.1526 76.8745 79.1196Z" fill="white"/>
<path d="M77.6243 78.5513C77.4724 78.647 77.3272 78.7526 77.1853 78.8615C77.3305 78.7526 77.4757 78.6437 77.6243 78.5513Z" fill="white"/>
<path d="M73.9031 85.4468L79.0797 196.129L73.9031 85.4468Z" fill="white"/>
<path d="M125.686 44.1994C125.626 44.1664 125.563 44.13 125.504 44.1035C124.668 43.7168 123.61 43.8589 122.268 44.6391L73.5065 75.5532C71.0372 77.1168 69.1331 80.6439 69.262 83.4107L74.4386 194.093C74.4981 195.342 74.9576 196.265 75.7377 196.717L79.8004 199.078C79.8004 199.078 79.7739 199.058 79.764 199.051C79.7177 199.021 79.6781 198.995 79.6351 198.959C79.5822 198.922 79.5326 198.879 79.483 198.836C79.4467 198.803 79.407 198.764 79.3706 198.727C79.3244 198.681 79.2847 198.628 79.2417 198.579C79.2087 198.536 79.1723 198.496 79.1425 198.45C79.0996 198.397 79.0665 198.337 79.0302 198.274C79.0037 198.228 78.974 198.182 78.9475 198.132C78.9145 198.063 78.8814 197.997 78.855 197.927C78.8318 197.874 78.8087 197.825 78.7855 197.772C78.7591 197.699 78.7393 197.623 78.7161 197.547C78.7128 197.547 78.7128 197.541 78.7128 197.531C78.6963 197.478 78.6798 197.428 78.6632 197.372C78.6401 197.279 78.6269 197.184 78.6103 197.088C78.6004 197.038 78.5872 196.989 78.5806 196.939C78.5607 196.79 78.5475 196.631 78.5376 196.473L73.361 85.7907C73.361 85.7907 73.361 85.3544 73.3709 85.1296L73.3412 85.1098L73.3742 85.1296C73.5362 82.4818 75.3312 79.3745 77.6054 77.93L125.874 47.3298L126.367 47.0191C127.709 46.2357 128.767 46.0935 129.603 46.4803C129.662 46.51 129.725 46.5398 129.785 46.5762L125.689 44.1994H125.686Z" fill="#0030B9"/>
<path d="M136.254 159.883L131.077 49.2009C131.011 47.8555 130.489 46.8903 129.6 46.4804C128.763 46.0936 127.705 46.2357 126.363 47.0192L77.6022 77.93C75.3279 79.3746 73.533 82.4819 73.371 85.1297C73.3545 85.3545 78.5377 196.47 78.5377 196.47C78.5443 196.628 78.5608 196.79 78.5807 196.936C78.5873 196.985 78.6005 197.035 78.6104 197.084C78.6269 197.18 78.6402 197.279 78.6633 197.369C78.6798 197.425 78.6964 197.474 78.7129 197.527C78.7129 197.534 78.7129 197.537 78.7162 197.544C78.7393 197.62 78.7592 197.696 78.7856 197.769C78.8087 197.822 78.8319 197.871 78.855 197.924C78.8815 197.993 78.9112 198.06 78.9476 198.129C78.974 198.179 79.0038 198.225 79.0302 198.271C79.0666 198.331 79.103 198.393 79.1426 198.446C79.1724 198.493 79.2087 198.532 79.2418 198.575C79.2848 198.625 79.3244 198.678 79.3707 198.724C79.4071 198.76 79.4467 198.8 79.4831 198.833C79.5327 198.876 79.5823 198.916 79.6352 198.955C79.6781 198.988 79.7178 199.015 79.7641 199.048C79.774 199.055 79.7905 199.064 79.8004 199.074C79.8699 199.111 79.9426 199.157 80.012 199.187C80.845 199.574 81.9061 199.431 83.2482 198.651L132.006 167.737C134.475 166.174 136.383 162.646 136.254 159.88V159.883Z" fill="#0030B9"/>
<path d="M80.9702 199.871C80.5537 199.871 80.167 199.788 79.8099 199.623C79.7538 199.6 79.6843 199.56 79.6149 199.521L79.4926 199.445C79.4232 199.398 79.3769 199.369 79.3273 199.329C79.2877 199.302 79.2282 199.253 79.1687 199.203C79.1158 199.157 79.0761 199.117 79.0331 199.074C78.9769 199.018 78.934 198.969 78.8943 198.919L78.8678 198.889C78.8249 198.836 78.7852 198.787 78.7455 198.731C78.7092 198.681 78.6728 198.628 78.6398 198.572L78.5836 198.476C78.5604 198.44 78.5373 198.4 78.5174 198.36C78.4712 198.268 78.4348 198.185 78.4018 198.102L78.339 197.96C78.3158 197.901 78.2993 197.851 78.2861 197.805L78.2332 197.752V197.61C78.2199 197.574 78.2067 197.537 78.1968 197.494C78.1704 197.385 78.1505 197.276 78.134 197.17C78.1241 197.131 78.1109 197.071 78.1009 197.012C78.0778 196.84 78.0613 196.665 78.0547 196.493C76.4977 163.076 72.8748 85.3246 72.888 85.0965C73.0632 82.2835 74.9738 79.0274 77.3406 77.53L126.102 46.6191C127.553 45.7729 128.789 45.5845 129.794 46.0505C130.852 46.5365 131.473 47.6505 131.546 49.1777L136.723 159.86C136.858 162.779 134.855 166.491 132.257 168.14L83.499 199.055C82.5635 199.597 81.7173 199.868 80.9669 199.868L80.9702 199.871ZM80.0645 198.681L80.0909 198.694C80.124 198.714 80.1603 198.737 80.1967 198.75C80.9173 199.084 81.8561 198.912 83.0098 198.241L131.751 167.334C134.095 165.85 135.9 162.514 135.777 159.899L130.601 49.2173C130.545 48.0604 130.118 47.2373 129.398 46.9067C128.69 46.5794 127.751 46.7546 126.598 47.4257L77.8497 78.3266C75.7176 79.6786 73.9954 82.614 73.8367 85.1527C73.8565 86.0618 78.9538 195.339 79.0034 196.443C79.01 196.589 79.0232 196.737 79.043 196.873C79.0463 196.899 79.0563 196.936 79.0662 196.975L79.0728 197.015C79.086 197.094 79.0992 197.174 79.1158 197.25C79.1158 197.26 79.1224 197.269 79.1257 197.279L79.1356 197.316C79.1422 197.342 79.1521 197.365 79.1587 197.392L79.1852 197.478C79.1951 197.517 79.2083 197.557 79.2215 197.593L79.281 197.726C79.3075 197.798 79.3339 197.851 79.3604 197.907C79.367 197.917 79.3802 197.941 79.3934 197.96L79.4529 198.06C79.4695 198.089 79.486 198.116 79.5058 198.142L79.529 198.175C79.5521 198.208 79.5753 198.238 79.5984 198.268L79.6248 198.298C79.648 198.327 79.6711 198.354 79.6976 198.38C79.7339 198.417 79.7637 198.446 79.7934 198.473C79.8232 198.496 79.8628 198.529 79.9025 198.562C79.9521 198.602 79.9752 198.615 79.9984 198.631C80.0149 198.641 80.038 198.655 80.0579 198.671L80.0645 198.681Z" fill="#39AFFF"/>
<path d="M129.523 163.949L85.909 191.594C85.0198 192.106 84.1768 192.222 83.5091 191.914C82.8017 191.587 82.3852 190.817 82.3356 189.749L77.4896 86.1511C77.44 85.0801 77.7639 83.8404 78.4019 82.6603C79.0399 81.4802 79.9126 80.4952 80.8679 79.8902L124.486 52.2453C125.371 51.7329 126.218 51.6172 126.882 51.9247C127.59 52.2552 128.009 53.0188 128.059 54.0865L132.902 157.691C133.007 159.899 131.493 162.703 129.523 163.952V163.949Z" fill="white"/>
<path d="M126.615 110.07C126.535 108.398 125.293 107.78 123.812 108.636C123.769 108.662 123.726 108.689 123.679 108.715L85.7044 132.79C84.9574 133.266 84.2731 134.033 83.774 134.958C83.2748 135.877 83.0203 136.849 83.0599 137.682C83.0963 138.519 83.4236 139.117 83.9789 139.378C84.4979 139.616 85.159 139.53 85.8565 139.127C85.9028 139.1 85.949 139.074 85.9986 139.044L123.974 114.969C125.511 113.994 126.697 111.796 126.618 110.074L126.615 110.07ZM123.944 114.364L85.9656 138.439C85.9292 138.466 85.8862 138.489 85.8466 138.512C85.2879 138.836 84.7557 138.902 84.3392 138.71C83.8896 138.502 83.6285 138.019 83.5987 137.342C83.5657 136.671 83.7706 135.891 84.1739 135.144C84.5772 134.4 85.1326 133.775 85.7309 133.395L123.706 109.32C123.749 109.294 123.782 109.274 123.818 109.251C125.012 108.563 126.01 109.066 126.076 110.414C126.142 111.806 125.183 113.574 123.944 114.364Z" fill="#0039DC"/>
<path d="M123.944 114.361L85.9653 138.436C85.9289 138.462 85.8859 138.485 85.8463 138.509C85.2876 138.833 84.7554 138.899 84.3389 138.707C83.8893 138.499 83.6282 138.016 83.5984 137.338C83.5654 136.667 83.7703 135.887 84.1736 135.14C84.5769 134.396 85.1322 133.772 85.7306 133.391L123.706 109.317C123.749 109.29 123.782 109.27 123.818 109.247C125.011 108.56 126.01 109.062 126.076 110.411C126.142 111.802 125.183 113.571 123.944 114.361Z" fill="#0039DC"/>
<path d="M112.543 81.8666C112.245 81.741 111.875 81.8005 111.488 82.022C111.445 82.0451 111.409 82.0716 111.366 82.098C110.936 82.3823 110.546 82.8385 110.265 83.374L103.869 95.6511L100.13 94.4346C99.8325 94.3387 99.4788 94.4114 99.1317 94.6131C98.6524 94.8908 98.1797 95.4064 97.8591 96.0576C97.3137 97.1816 97.4327 98.279 98.1368 98.5071L104.315 100.52L112.721 84.3822C113.002 83.8434 113.138 83.2847 113.105 82.8054C113.072 82.3294 112.873 81.9922 112.543 81.86H112.546L112.543 81.8666Z" fill="#8EBF30"/>
<path d="M119.524 82.3032C119.729 86.703 118.397 91.8101 115.766 96.6826C113.134 101.555 109.525 105.611 105.597 108.097C105.35 108.252 105.105 108.404 104.857 108.547C101.198 110.659 97.7135 111.128 94.9765 109.862C92.0543 108.51 90.3321 105.34 90.1238 100.937C89.9189 96.5372 91.2511 91.43 93.8823 86.5575C96.5136 81.685 100.123 77.629 104.05 75.1432C104.298 74.9878 104.54 74.8391 104.788 74.7002C108.447 72.588 111.934 72.112 114.671 73.3813C117.594 74.7333 119.316 77.9034 119.524 82.2999V82.3032ZM115.366 96.4942C117.901 91.8002 119.187 86.8815 118.985 82.6437C118.787 78.4025 117.127 75.3548 114.311 74.049C111.673 72.826 108.318 73.2821 104.794 75.3184C104.556 75.4539 104.318 75.5994 104.08 75.7514C100.295 78.1513 96.821 82.0553 94.2823 86.7492C91.7469 91.4432 90.461 96.3653 90.6627 100.6C90.861 104.841 92.5204 107.895 95.3368 109.194C97.9747 110.414 101.33 109.961 104.854 107.928C105.092 107.793 105.33 107.647 105.568 107.495C109.353 105.099 112.827 101.191 115.366 96.4975" fill="#8EBF30"/>
<path d="M156.861 195.851L162.275 187.918L171.2 184.83L176.615 176.897L184.429 174.547L190.446 168.001C190.542 167.896 190.452 167.724 190.313 167.75C183.712 169.043 164.863 143.725 156.348 126.083C147.595 107.952 135.172 106.236 125.153 110.798L84.5369 136.767C94.5595 132.208 106.982 133.924 115.732 152.052C124.244 169.691 141.397 203.378 148.924 199.154L156.867 195.851H156.861Z" fill="#F1F5FB"/>
<path d="M147.513 199.994C147.096 199.994 146.657 199.921 146.204 199.779C139.969 197.819 129.573 181.829 115.3 152.26C104.95 130.824 90.471 134.585 84.7259 137.2C84.4978 137.303 84.23 137.213 84.111 136.995C83.992 136.777 84.0614 136.503 84.273 136.367L124.889 110.398C124.909 110.385 124.929 110.375 124.949 110.365C130.948 107.635 146.058 103.684 156.769 125.878C165.614 144.198 184.106 168.478 190.215 167.285C190.479 167.235 190.74 167.357 190.873 167.589C191.005 167.823 190.975 168.118 190.793 168.319L184.77 174.871C184.714 174.934 184.638 174.98 184.559 175.003L176.906 177.307L171.588 185.102C171.531 185.184 171.449 185.251 171.35 185.284L162.573 188.321L157.271 196.09C157.221 196.182 157.139 196.255 157.036 196.298L149.116 199.59C148.62 199.865 148.081 200 147.503 200L147.513 199.994ZM93.8395 134.189C100.738 134.189 109.336 137.722 116.156 151.847C133.785 188.374 142.382 197.581 146.488 198.873C147.334 199.141 148.055 199.098 148.686 198.741C148.703 198.731 148.719 198.724 148.736 198.718L156.547 195.472L161.886 187.65C161.942 187.568 162.024 187.502 162.124 187.469L170.9 184.431L176.225 176.63C176.288 176.54 176.378 176.474 176.48 176.441L184.169 174.127L189.564 168.26C185.091 167.946 177.792 159.523 173.68 154.307C166.953 145.775 160.15 135.038 155.926 126.285C145.596 104.884 131.15 108.597 125.385 111.211L88.3025 134.919C89.9454 134.489 91.823 134.185 93.8494 134.185L93.8395 134.189Z" fill="#0039DC"/>
<path d="M107.243 136.053C106.705 136.053 106.172 135.792 105.845 135.309C105.33 134.539 105.531 133.494 106.301 132.972L135.407 113.403C136.178 112.887 137.222 113.089 137.744 113.859C138.26 114.629 138.058 115.674 137.288 116.196L108.182 135.765C107.895 135.96 107.567 136.049 107.243 136.049V136.053Z" fill="#0080ED"/>
<path d="M118.437 144.938C117.898 144.938 117.366 144.677 117.038 144.195C116.523 143.424 116.724 142.38 117.494 141.858L146.6 122.288C147.371 121.773 148.415 121.974 148.938 122.744C149.457 123.515 149.252 124.559 148.481 125.082L119.375 144.651C119.088 144.846 118.761 144.935 118.437 144.935V144.938Z" fill="#0080ED"/>
<path d="M125.395 156.405C124.856 156.405 124.324 156.144 123.997 155.661C123.481 154.891 123.683 153.847 124.453 153.324L153.559 133.755C154.329 133.239 155.374 133.441 155.896 134.211C156.412 134.981 156.21 136.026 155.44 136.548L126.334 156.118C126.046 156.313 125.719 156.402 125.395 156.402V156.405Z" fill="#0080ED"/>
<path d="M132.303 168.894C131.764 168.894 131.232 168.633 130.905 168.15C130.389 167.38 130.591 166.335 131.361 165.813L160.467 146.244C161.237 145.728 162.282 145.93 162.804 146.7C163.32 147.47 163.118 148.515 162.348 149.037L133.242 168.606C132.954 168.801 132.627 168.891 132.303 168.891V168.894Z" fill="#0080ED"/>
<path d="M161.145 175.753L157.116 178.46L151.222 169.694L155.251 166.98L161.145 175.753Z" fill="#39AFFF"/>
<path d="M170.153 169.697L166.14 172.394L160.246 163.625L164.259 160.927L170.153 169.697Z" fill="#39AFFF"/>
<path d="M148.586 171.464L146.982 172.544L152.881 181.309L154.485 180.229L148.586 171.464Z" fill="#39AFFF"/>
<path d="M146.187 185.802L143.245 187.782L137.351 179.016L140.296 177.039L146.187 185.802Z" fill="#39AFFF"/>
<path d="M150.306 183.039L148.577 184.199L142.687 175.433L144.412 174.269L150.306 183.039Z" fill="#39AFFF"/>
<path d="M163.092 174.441L162.338 174.95L156.448 166.18L157.201 165.674L163.092 174.441Z" fill="#39AFFF"/>
<path d="M166.355 159.518L165.45 160.127L171.344 168.895L172.249 168.286L166.355 159.518Z" fill="#39AFFF"/>
<path d="M175.624 166.018L173.446 167.482L167.558 158.713L169.73 157.251L175.624 166.018Z" fill="#39AFFF"/>
<path d="M35.9251 144.836C41.5943 143.441 46.3378 140.452 49.7988 136.492L53.0284 132.796C53.002 132.826 52.9755 132.853 52.9491 132.879C58.5852 126.486 60.8561 117.534 58.1918 108.685C53.8945 94.405 38.4077 85.7872 23.5985 89.43C17.8136 90.8547 12.9973 93.9422 9.51653 98.0279C9.58925 97.9453 9.65206 97.856 9.72478 97.7734L6.49519 101.469C0.915307 107.856 -1.31929 116.767 1.33182 125.58C5.62912 139.861 21.116 148.478 35.9251 144.836ZM41.4422 140.465C41.2968 140.515 41.1546 140.561 41.0092 140.608C41.1546 140.561 41.2968 140.512 41.4422 140.465ZM43.3363 139.751C43.2867 139.771 43.2405 139.794 43.1942 139.811C43.2438 139.791 43.2901 139.768 43.3363 139.751ZM46.8634 137.96C46.9362 137.917 47.0056 137.874 47.0717 137.828C46.999 137.871 46.9362 137.92 46.8634 137.96ZM48.4105 136.942C48.5195 136.862 48.6352 136.786 48.741 136.707C48.6319 136.786 48.5195 136.862 48.4105 136.942ZM51.4946 134.396C51.5872 134.31 51.6764 134.224 51.7657 134.139C51.6797 134.224 51.5872 134.314 51.4946 134.396ZM50.1261 135.629C50.2054 135.563 50.2814 135.494 50.3575 135.428C50.2781 135.497 50.2054 135.563 50.1261 135.629ZM3.54658 112.285C3.56311 112.113 3.57964 111.938 3.59616 111.769C3.57633 111.941 3.56311 112.11 3.54658 112.285ZM3.72178 110.788C3.74492 110.619 3.77136 110.454 3.79781 110.285C3.77136 110.454 3.74822 110.619 3.72178 110.788ZM4.00606 109.201C4.0292 109.089 4.05234 108.97 4.07879 108.851C4.05234 108.963 4.03251 109.082 4.00606 109.201ZM4.4391 107.449C4.46885 107.34 4.50851 107.231 4.54157 107.125C4.50851 107.231 4.47215 107.343 4.4391 107.449ZM4.88205 106.067C4.93825 105.912 4.99444 105.756 5.05725 105.601C5.00105 105.756 4.93825 105.912 4.88205 106.067ZM5.41425 104.692C5.48037 104.537 5.54648 104.378 5.6159 104.219C5.54648 104.375 5.48037 104.53 5.41425 104.692ZM6.05555 103.287C6.11505 103.162 6.17785 103.033 6.24066 102.91C6.17455 103.036 6.11835 103.162 6.05555 103.287ZM7.70836 100.415C7.7943 100.282 7.89017 100.153 7.98272 100.018C7.89017 100.15 7.79761 100.279 7.70836 100.415ZM3.48047 113.353C3.47386 113.495 3.46394 113.634 3.46063 113.776C3.46063 113.634 3.47716 113.495 3.48047 113.353ZM3.46394 115.263C3.46394 115.346 3.47386 115.425 3.48047 115.511C3.48047 115.429 3.47055 115.349 3.46394 115.263ZM3.56311 116.767C3.57964 116.936 3.59947 117.105 3.61931 117.273C3.59947 117.105 3.57633 116.936 3.56311 116.767Z" fill="#0030B9"/>
<path d="M29.2116 100.567L25.982 104.263C25.9489 104.153 25.8332 104.087 25.7109 104.117L28.9405 100.421C29.0628 100.392 29.1752 100.454 29.2116 100.567Z" fill="#8EBF30"/>
<path d="M36.9862 108.646L33.7566 112.341L34.2293 108.067L37.4556 104.372L36.9862 108.646Z" fill="#8EBF30"/>
<path d="M36.8902 108.784L33.6606 112.48L33.7565 112.341L36.9861 108.646L36.8902 108.784Z" fill="#8EBF30"/>
<path d="M36.8901 108.785L33.6605 112.48L33.4919 112.507L36.7248 108.811L36.8901 108.785Z" fill="#8EBF30"/>
<path d="M30.1862 103.813L26.9566 107.509L25.9814 104.266L29.211 100.567L30.1862 103.813Z" fill="#8EBF30"/>
<path d="M37.4558 104.372L34.2262 108.068C34.2328 107.965 34.1667 107.869 34.0709 107.839C32.0809 107.221 29.562 107.102 26.9572 107.509L30.1867 103.813C32.7883 103.407 35.3105 103.529 37.3004 104.144C37.3996 104.174 37.469 104.266 37.4558 104.372Z" fill="#8EBF30"/>
<path d="M28.9401 100.424L25.7105 104.12L22.4479 104.92L25.6808 101.224L28.9401 100.424Z" fill="#8EBF30"/>
<path d="M22.3389 104.99L25.5685 101.294C25.5949 101.264 25.6346 101.238 25.6775 101.225L22.448 104.92C22.4017 104.93 22.3653 104.953 22.3389 104.99Z" fill="#8EBF30"/>
<path d="M22.3388 104.99L25.5684 101.294C25.5254 101.344 25.5089 101.406 25.5254 101.476L22.2958 105.171C22.276 105.105 22.2958 105.039 22.3388 104.99Z" fill="#8EBF30"/>
<path d="M36.725 108.811L33.4954 112.506C31.7137 112.047 29.9815 111.905 28.332 112.077L31.5616 108.381C33.2111 108.209 34.9433 108.351 36.725 108.811Z" fill="#8EBF30"/>
<path d="M26.5266 104.791L23.2937 108.49L22.2954 105.168L25.5283 101.473L26.5266 104.791Z" fill="#8EBF30"/>
<path d="M33.0558 113.343L29.8229 117.038L28.332 112.08L31.5616 108.381L33.0558 113.343Z" fill="#8EBF30"/>
<path d="M23.7175 113.862L26.9471 110.166C27.1851 109.892 27.5091 109.641 27.9157 109.413L24.6861 113.108C24.2795 113.336 23.9555 113.588 23.7175 113.862Z" fill="#8EBF30"/>
<path d="M19.0333 111.287L22.2629 107.591C23.2579 106.45 24.6992 105.489 26.5305 104.791L23.3009 108.487C21.4696 109.184 20.0349 110.146 19.0333 111.287Z" fill="#8EBF30"/>
<path d="M29.0986 113.346L25.869 117.045L24.6855 113.108L27.9151 109.413L29.0986 113.346Z" fill="#8EBF30"/>
<path d="M23.3105 115.67C23.1088 115.002 23.251 114.394 23.7138 113.862L26.9434 110.166C26.4806 110.698 26.3384 111.31 26.5401 111.974C25.5715 113.085 24.279 114.562 23.3105 115.67Z" fill="#8EBF30"/>
<path d="M41.3198 124.01L38.0902 127.705C39.5712 126.01 40.0703 123.934 39.4092 121.742C38.0803 117.319 33.9615 116.965 29.8196 117.035L33.0492 113.339C37.1878 113.27 41.3033 113.623 42.6388 118.046C43.2999 120.238 42.7974 122.317 41.3198 124.01Z" fill="#8EBF30"/>
<path d="M25.8693 117.045C24.3355 116.917 23.5587 116.5 23.3141 115.67L26.5437 111.975C26.7949 112.804 27.5651 113.221 29.0989 113.35C28.1304 114.46 26.8379 115.938 25.8693 117.045Z" fill="#8EBF30"/>
<path d="M36.7018 121.468L33.4722 125.164C33.9019 124.675 34.0308 124.119 33.8523 123.518C33.6077 122.704 32.8507 122.285 31.3533 122.113L34.5829 118.417C36.0836 118.589 36.8406 119.009 37.0852 119.822C37.2637 120.424 37.1348 120.976 36.7051 121.468H36.7018Z" fill="#8EBF30"/>
<path d="M36.7018 121.468L33.4722 125.164C33.2375 125.435 32.9103 125.683 32.4938 125.911L35.7234 122.215C36.1366 121.987 36.4638 121.736 36.7018 121.468Z" fill="#8EBF30"/>
<path d="M35.7237 122.219L32.4908 125.914L31.3503 122.116L34.5832 118.42L35.7237 122.219Z" fill="#8EBF30"/>
<path d="M41.3196 124.01L38.09 127.705C37.1017 128.833 35.6802 129.795 33.8721 130.502L37.1017 126.806C38.9098 126.099 40.3313 125.144 41.3196 124.01Z" fill="#8EBF30"/>
<path d="M32.0902 123.283L28.8573 126.982L27.3896 122.106L30.6225 118.41L32.0902 123.283Z" fill="#8EBF30"/>
<path d="M38.11 130.156L34.8804 133.855L33.8755 130.503L37.1051 126.807L38.11 130.156Z" fill="#8EBF30"/>
<path d="M37.961 130.413L34.7281 134.109L31.4688 134.909L34.6983 131.213L37.961 130.413Z" fill="#8EBF30"/>
<path d="M38.0733 130.344L34.8438 134.039C34.89 133.99 34.9033 133.917 34.8867 133.851L38.1163 130.155C38.1362 130.225 38.1196 130.297 38.0733 130.344Z" fill="#8EBF30"/>
<path d="M19.033 111.287L22.2626 107.591C20.7784 109.294 20.2792 111.393 20.947 113.621C22.3915 118.414 27.2838 118.44 30.6225 118.407L27.3929 122.103C24.0542 122.136 19.1619 122.11 17.7174 117.316C17.0496 115.092 17.5455 112.989 19.033 111.287Z" fill="#8EBF30"/>
<path d="M32.0901 123.283L28.8605 126.979C26.5895 127.27 24.1235 127.012 22.2129 126.285L25.4425 122.589C27.3531 123.319 29.8191 123.581 32.0901 123.283Z" fill="#8EBF30"/>
<path d="M25.4394 122.585L22.2098 126.281L22.0181 126.294L25.2477 122.595L25.4394 122.585Z" fill="#8EBF30"/>
<path d="M33.0561 113.343C37.1947 113.274 41.3102 113.627 42.6457 118.05C43.7431 121.706 41.6275 125.042 37.112 126.807L38.1203 130.152C38.1533 130.261 38.0905 130.377 37.9715 130.407L34.7122 131.207C34.5998 131.233 34.4742 131.164 34.4378 131.055L33.4626 127.815C30.2264 128.377 26.8679 128.162 24.6532 127.247C24.5606 127.21 24.5011 127.114 24.5209 127.015L25.1589 122.738L25.2581 122.589L25.4465 122.582C27.3572 123.313 29.8232 123.574 32.0941 123.276L30.6264 118.404C27.2877 118.437 22.3954 118.411 20.9509 113.617C19.8336 109.899 21.9657 106.534 26.5308 104.788L25.5325 101.469C25.4994 101.36 25.5688 101.248 25.6845 101.221L28.9439 100.421C29.0662 100.392 29.1786 100.454 29.2149 100.567L30.1901 103.816C32.7916 103.41 35.3138 103.532 37.3038 104.147C37.4029 104.177 37.4724 104.269 37.4591 104.375L36.9864 108.649L36.8906 108.791L36.7187 108.818C34.937 108.358 33.2048 108.216 31.5553 108.388L33.0494 113.35H33.0527L33.0561 113.343ZM29.1025 113.35L27.9158 109.413C26.7192 110.08 26.2399 110.963 26.544 111.975C26.7952 112.804 27.5654 113.221 29.0992 113.35M35.7237 122.219C36.8906 121.581 37.36 120.758 37.0823 119.825C36.8377 119.012 36.0807 118.592 34.5833 118.421L35.727 122.219" fill="white"/>
<path d="M26.5439 111.972C26.2397 110.96 26.7191 110.081 27.9157 109.41L29.1024 113.347C27.5686 113.218 26.7918 112.801 26.5472 111.972H26.5439Z" fill="#A7E35D"/>
<path d="M34.5829 118.42C36.0836 118.592 36.8406 119.012 37.0819 119.825C37.3629 120.757 36.8869 121.581 35.7233 122.219L34.5796 118.42H34.5829Z" fill="#A7E35D"/>
<path d="M38.0735 130.344L34.8439 134.039C34.8175 134.069 34.7778 134.092 34.7349 134.106L37.9645 130.41C38.0107 130.4 38.0471 130.377 38.0735 130.344Z" fill="#8EBF30"/>
<path d="M25.1484 122.747L21.9155 126.443L22.018 126.294L25.2476 122.595L25.1484 122.747Z" fill="#8EBF30"/>
<path d="M34.4307 131.061L31.1978 134.757L30.2227 131.517L33.4522 127.822L34.4307 131.061Z" fill="#8EBF30"/>
<path d="M34.6988 131.213L31.4692 134.909C31.3568 134.935 31.2312 134.866 31.1948 134.757L34.4244 131.061C34.4575 131.17 34.5831 131.24 34.6988 131.213Z" fill="#8EBF30"/>
<path d="M24.511 127.018L21.2781 130.717L21.9161 126.443L25.149 122.747L24.511 127.018Z" fill="#8EBF30"/>
<path d="M33.4527 127.821L30.2231 131.517C26.9869 132.079 23.6284 131.864 21.4136 130.949C21.3211 130.912 21.2616 130.816 21.2814 130.717L24.511 127.021C24.4912 127.121 24.554 127.217 24.6432 127.253C26.858 128.165 30.2165 128.383 33.4527 127.821Z" fill="#8EBF30"/>
<path d="M53.0318 132.793L49.8022 136.489C46.3413 140.446 41.5977 143.437 35.9285 144.832C21.1194 148.475 5.63254 139.857 1.33523 125.577C-1.31588 116.764 0.918726 107.852 6.49861 101.466L9.7282 97.77C4.14832 104.156 1.91372 113.068 4.56482 121.881C8.86213 136.162 24.349 144.779 39.1581 141.136C44.8273 139.741 49.5708 136.753 53.0318 132.793Z" fill="#8EBF30"/>
<path d="M23.6018 89.4266C38.411 85.7838 53.8978 94.4015 58.1951 108.682C62.4924 122.962 53.9672 137.494 39.158 141.136C24.3489 144.779 8.86203 136.161 4.56473 121.881C0.26742 107.601 8.79262 93.0694 23.6018 89.4266ZM37.102 126.807C41.6174 125.041 43.7396 121.699 42.6356 118.05C41.3067 113.627 37.1879 113.273 33.046 113.343L31.5518 108.381C33.2013 108.209 34.9335 108.351 36.7152 108.811L36.8871 108.784L36.9829 108.642L37.4557 104.368C37.4623 104.266 37.3962 104.17 37.3003 104.14C35.3103 103.522 32.7914 103.403 30.1866 103.809L29.2114 100.56C29.1784 100.451 29.0627 100.385 28.9404 100.414L25.681 101.214C25.5686 101.241 25.4959 101.357 25.529 101.462L26.5273 104.781C21.9655 106.53 19.8301 109.895 20.9474 113.611C22.3919 118.404 27.2843 118.43 30.6229 118.397L32.0906 123.27C29.8197 123.56 27.3537 123.303 25.443 122.575L25.2546 122.582L25.1554 122.731L24.5175 127.008C24.4976 127.107 24.5604 127.203 24.6497 127.24C26.8644 128.152 30.223 128.37 33.4592 127.808L34.4343 131.048C34.4674 131.157 34.593 131.226 34.7087 131.2L37.968 130.4C38.0903 130.37 38.1498 130.251 38.1168 130.145L37.1086 126.8" fill="#A7E35D"/>
<path d="M216.47 146.426C225.478 137.418 225.478 122.813 216.47 113.805C207.462 104.797 192.857 104.797 183.849 113.805C174.841 122.813 174.841 137.418 183.849 146.426C192.857 155.434 207.462 155.434 216.47 146.426Z" fill="#39AFFF"/>
<path d="M208.085 118.998L187.902 124.116C186.541 124.461 185.718 125.844 186.063 127.205L189.151 139.381C189.496 140.742 190.879 141.565 192.24 141.22L212.423 136.102C213.784 135.757 214.607 134.374 214.262 133.013L211.174 120.837C210.829 119.476 209.446 118.653 208.085 118.998Z" fill="#0030B9"/>
<path d="M190.942 132.542C190.773 132.542 190.618 132.426 190.575 132.254L189.359 127.465C189.335 127.365 189.349 127.263 189.402 127.177C189.454 127.091 189.537 127.028 189.636 127.002L194.426 125.785C194.522 125.759 194.628 125.775 194.714 125.828C194.8 125.881 194.862 125.964 194.889 126.063L196.102 130.853C196.155 131.055 196.029 131.263 195.828 131.316L191.038 132.532C191.008 132.539 190.975 132.545 190.945 132.545L190.942 132.542ZM190.188 127.646L191.216 131.699L195.269 130.671L194.241 126.618L190.185 127.646H190.188Z" fill="white"/>
</g>
<defs>
<clipPath id="clip0_274_32882">
<rect width="233" height="200" fill="white"/>
</clipPath>
</defs>
</svg>
